<?xml version="1.0" encoding="UTF-8" standalone="no"?>
<!DOCTYPE svg PUBLIC "-//W3C//DTD SVG 1.0//EN" "http://www.w3.org/TR/2001/PR-SVG-20010719/DTD/svg10.dtd">
<svg width="22cm" height="25cm" viewBox="40 41 426 485" xmlns="http://www.w3.org/2000/svg" xmlns:xlink="http://www.w3.org/1999/xlink">
  <g>
    <ellipse style="fill: #ffffff" cx="91" cy="242" rx="6" ry="6"/>
    <ellipse style="fill: none; fill-opacity:0; stroke-width: 2; stroke: #000000" cx="91" cy="242" rx="6" ry="6"/>
    <line style="fill: none; fill-opacity:0; stroke-width: 2; stroke: #000000" x1="67" y1="254" x2="115" y2="254"/>
    <line style="fill: none; fill-opacity:0; stroke-width: 2; stroke: #000000" x1="91" y1="248" x2="91" y2="278"/>
    <line style="fill: none; fill-opacity:0; stroke-width: 2; stroke: #000000" x1="91" y1="278" x2="67" y2="304"/>
    <line style="fill: none; fill-opacity:0; stroke-width: 2; stroke: #000000" x1="91" y1="278" x2="115" y2="304"/>
    <text font-size="12.8" style="fill: #000000;text-anchor:middle;font-family:sans-serif;font-style:normal;font-weight:normal" x="91" y="327.6">
      <tspan x="91" y="327.6">Citizen scientist</tspan>
    </text>
  </g>
  <g>
    <ellipse style="fill: #ffffff" cx="92" cy="392" rx="6" ry="6"/>
    <ellipse style="fill: none; fill-opacity:0; stroke-width: 2; stroke: #000000" cx="92" cy="392" rx="6" ry="6"/>
    <line style="fill: none; fill-opacity:0; stroke-width: 2; stroke: #000000" x1="68" y1="404" x2="116" y2="404"/>
    <line style="fill: none; fill-opacity:0; stroke-width: 2; stroke: #000000" x1="92" y1="398" x2="92" y2="428"/>
    <line style="fill: none; fill-opacity:0; stroke-width: 2; stroke: #000000" x1="92" y1="428" x2="68" y2="454"/>
    <line style="fill: none; fill-opacity:0; stroke-width: 2; stroke: #000000" x1="92" y1="428" x2="116" y2="454"/>
    <text font-size="12.8" style="fill: #000000;text-anchor:middle;font-family:sans-serif;font-style:normal;font-weight:normal" x="92" y="477.6">
      <tspan x="92" y="477.6">Language expert</tspan>
    </text>
  </g>
  <g>
    <ellipse style="fill: #ffffff" cx="90" cy="85" rx="6" ry="6"/>
    <ellipse style="fill: none; fill-opacity:0; stroke-width: 2; stroke: #000000" cx="90" cy="85" rx="6" ry="6"/>
    <line style="fill: none; fill-opacity:0; stroke-width: 2; stroke: #000000" x1="66" y1="97" x2="114" y2="97"/>
    <line style="fill: none; fill-opacity:0; stroke-width: 2; stroke: #000000" x1="90" y1="91" x2="90" y2="121"/>
    <line style="fill: none; fill-opacity:0; stroke-width: 2; stroke: #000000" x1="90" y1="121" x2="66" y2="147"/>
    <line style="fill: none; fill-opacity:0; stroke-width: 2; stroke: #000000" x1="90" y1="121" x2="114" y2="147"/>
    <text font-size="12.8" style="fill: #000000;text-anchor:middle;font-family:sans-serif;font-style:normal;font-weight:normal" x="90" y="170.6">
      <tspan x="90" y="170.6">Language activist</tspan>
    </text>
  </g>
  <g>
    <ellipse style="fill: #ffffff" cx="217" cy="435" rx="6" ry="6"/>
    <ellipse style="fill: none; fill-opacity:0; stroke-width: 2; stroke: #000000" cx="217" cy="435" rx="6" ry="6"/>
    <line style="fill: none; fill-opacity:0; stroke-width: 2; stroke: #000000" x1="193" y1="447" x2="241" y2="447"/>
    <line style="fill: none; fill-opacity:0; stroke-width: 2; stroke: #000000" x1="217" y1="441" x2="217" y2="471"/>
    <line style="fill: none; fill-opacity:0; stroke-width: 2; stroke: #000000" x1="217" y1="471" x2="193" y2="497"/>
    <line style="fill: none; fill-opacity:0; stroke-width: 2; stroke: #000000" x1="217" y1="471" x2="241" y2="497"/>
    <text font-size="12.8" style="fill: #000000;text-anchor:middle;font-family:sans-serif;font-style:normal;font-weight:normal" x="217" y="520.6">
      <tspan x="217" y="520.6">Researcher</tspan>
    </text>
  </g>
  <g>
    <path style="fill: #ffffff" d="M 371.376 238.333 C 387.626,232.833 395.751,231 412.001,231 C 428.251,231 436.376,232.833 452.626,238.333 L 452.626,267.667 C 436.376,273.167 428.251,275 412.001,275 C 395.751,275 387.626,273.167 371.376,267.667 L 371.376,238.333z"/>
    <path style="fill: none; fill-opacity:0; stroke-width: 2; stroke: #000000" d="M 371.376 238.333 C 387.626,232.833 395.751,231 412.001,231 C 428.251,231 436.376,232.833 452.626,238.333 L 452.626,267.667 C 436.376,273.167 428.251,275 412.001,275 C 395.751,275 387.626,273.167 371.376,267.667 L 371.376,238.333"/>
    <path style="fill: none; fill-opacity:0; stroke-width: 2; stroke: #000000" d="M 371.376 238.333 C 387.626,243.833 395.751,245.667 412.001,245.667 C 428.251,245.667 436.376,243.833 452.626,238.333"/>
    <text font-size="12.8" style="fill: #000000;text-anchor:middle;font-family:sans-serif;font-style:normal;font-weight:normal" x="412.001" y="260.667">
      <tspan x="412.001" y="260.667">Infrastructure</tspan>
    </text>
  </g>
  <g>
    <rect style="fill: #ffffff" x="354.102" y="440" width="105.8" height="38"/>
    <rect style="fill: none; fill-opacity:0; stroke-width: 2; stroke: #000000" x="354.102" y="440" width="105.8" height="38"/>
    <text font-size="12.8" style="fill: #000000;text-anchor:middle;font-family:sans-serif;font-style:normal;font-weight:normal" x="407.002" y="462.6">
      <tspan x="407.002" y="462.6">Text-to-speech</tspan>
    </text>
  </g>
  <g>
    <rect style="fill: #ffffff" x="333.678" y="42" width="130.65" height="38"/>
    <rect style="fill: none; fill-opacity:0; stroke-width: 2; stroke: #000000" x="333.678" y="42" width="130.65" height="38"/>
    <text font-size="12.8" style="fill: #000000;text-anchor:middle;font-family:sans-serif;font-style:normal;font-weight:normal" x="399.003" y="64.6">
      <tspan x="399.003" y="64.6">Grammar-checking</tspan>
    </text>
  </g>
  <g>
    <line style="fill: none; fill-opacity:0; stroke-width: 2; stroke: #000000" x1="356.174" y1="241.724" x2="115" y2="121"/>
    <polygon style="fill: #000000" points="353.936,246.196 370.482,248.886 358.412,237.253 "/>
    <polygon style="fill: none; fill-opacity:0; stroke-width: 2; stroke: #000000" points="353.936,246.196 370.482,248.886 358.412,237.253 "/>
    <text font-size="12.7998" style="fill: #000000;text-anchor:middle;font-family:sans-serif;font-style:normal;font-weight:normal" x="243.188" y="195.167">Words</text>
  </g>
  <g>
    <line style="fill: none; fill-opacity:0; stroke-width: 2; stroke: #000000" x1="355.749" y1="257.751" x2="116" y2="278"/>
    <polygon style="fill: #000000" points="356.169,262.733 371.692,256.404 355.328,252.769 "/>
    <polygon style="fill: none; fill-opacity:0; stroke-width: 2; stroke: #000000" points="356.169,262.733 371.692,256.404 355.328,252.769 "/>
    <text font-size="12.7998" style="fill: #000000;text-anchor:middle;font-family:sans-serif;font-style:normal;font-weight:normal" x="243.182" y="277.258">Words</text>
  </g>
  <g>
    <line style="fill: none; fill-opacity:0; stroke-width: 2; stroke: #000000" x1="356.632" y1="276.128" x2="139.924" y2="400.496"/>
    <polygon style="fill: #000000" points="359.12,280.464 370.509,268.164 354.143,271.791 "/>
    <polygon style="fill: none; fill-opacity:0; stroke-width: 2; stroke: #000000" points="359.12,280.464 370.509,268.164 354.143,271.791 "/>
    <text font-size="12.7998" style="fill: #000000;text-anchor:middle;font-family:sans-serif;font-style:normal;font-weight:normal" x="255.764" y="344.016">Words</text>
  </g>
  <g>
    <line style="fill: none; fill-opacity:0; stroke-width: 2; stroke: #000000" x1="381.374" y1="287.239" x2="249.992" y2="434.117"/>
    <polygon style="fill: #000000" points="385.101,290.573 392.041,275.314 377.648,283.906 "/>
    <polygon style="fill: none; fill-opacity:0; stroke-width: 2; stroke: #000000" points="385.101,290.573 392.041,275.314 377.648,283.906 "/>
    <text font-size="12.7998" style="fill: #000000;text-anchor:middle;font-family:sans-serif;font-style:normal;font-weight:normal" x="321.35" y="364.342">Grammar</text>
  </g>
  <g>
    <polyline style="fill: none; fill-opacity:0; stroke-width: 2; stroke: #000000" points="412,253 412,285 407.002,285 407.002,454.528 "/>
    <polyline style="fill: none; fill-opacity:0; stroke-width: 2; stroke: #000000" points="402.002,446.764 407.002,456.764 412.002,446.764 "/>
  </g>
  <g>
    <polyline style="fill: none; fill-opacity:0; stroke-width: 2; stroke: #000000" points="412,253 412,274 399.002,274 399.002,65.4721 "/>
    <polyline style="fill: none; fill-opacity:0; stroke-width: 2; stroke: #000000" points="404.002,73.2361 399.002,63.2361 394.002,73.2361 "/>
  </g>
  <g>
    <line style="fill: none; fill-opacity:0; stroke-width: 2; stroke: #000000" x1="156.413" y1="108.104" x2="332.682" y2="73.8778"/>
    <polygon style="fill: #000000" points="155.46,103.196 140.706,111.154 157.366,113.013 "/>
    <polygon style="fill: none; fill-opacity:0; stroke-width: 2; stroke: #000000" points="155.46,103.196 140.706,111.154 157.366,113.013 "/>
  </g>
  <g>
    <line style="fill: none; fill-opacity:0; stroke-width: 2; stroke: #000000" x1="156.84" y1="434.381" x2="353.13" y2="453.698"/>
    <polygon style="fill: #000000" points="157.329,429.405 140.916,432.814 156.35,439.357 "/>
    <polygon style="fill: none; fill-opacity:0; stroke-width: 2; stroke: #000000" points="157.329,429.405 140.916,432.814 156.35,439.357 "/>
  </g>
</svg>
