<?xml version="1.0" encoding="UTF-8" standalone="no"?>
<!DOCTYPE svg PUBLIC "-//W3C//DTD SVG 1.0//EN" "http://www.w3.org/TR/2001/PR-SVG-20010719/DTD/svg10.dtd">
<svg width="20cm" height="16cm" viewBox="36 21 390 320" xmlns="http://www.w3.org/2000/svg" xmlns:xlink="http://www.w3.org/1999/xlink">
  <g>
    <ellipse style="fill: #ffffff" cx="166" cy="41" rx="6" ry="6"/>
    <ellipse style="fill: none; fill-opacity:0; stroke-width: 2; stroke: #000000" cx="166" cy="41" rx="6" ry="6"/>
    <line style="fill: none; fill-opacity:0; stroke-width: 2; stroke: #000000" x1="142" y1="53" x2="190" y2="53"/>
    <line style="fill: none; fill-opacity:0; stroke-width: 2; stroke: #000000" x1="166" y1="47" x2="166" y2="77"/>
    <line style="fill: none; fill-opacity:0; stroke-width: 2; stroke: #000000" x1="166" y1="77" x2="142" y2="103"/>
    <line style="fill: none; fill-opacity:0; stroke-width: 2; stroke: #000000" x1="166" y1="77" x2="190" y2="103"/>
    <text font-size="12.8" style="fill: #000000;text-anchor:middle;font-family:sans-serif;font-style:normal;font-weight:normal" x="166" y="126.6">
      <tspan x="166" y="126.6">Annotator</tspan>
    </text>
  </g>
  <g>
    <ellipse style="fill: #ffffff" cx="298" cy="40" rx="6" ry="6"/>
    <ellipse style="fill: none; fill-opacity:0; stroke-width: 2; stroke: #000000" cx="298" cy="40" rx="6" ry="6"/>
    <line style="fill: none; fill-opacity:0; stroke-width: 2; stroke: #000000" x1="274" y1="52" x2="322" y2="52"/>
    <line style="fill: none; fill-opacity:0; stroke-width: 2; stroke: #000000" x1="298" y1="46" x2="298" y2="76"/>
    <line style="fill: none; fill-opacity:0; stroke-width: 2; stroke: #000000" x1="298" y1="76" x2="274" y2="102"/>
    <line style="fill: none; fill-opacity:0; stroke-width: 2; stroke: #000000" x1="298" y1="76" x2="322" y2="102"/>
    <text font-size="12.8" style="fill: #000000;text-anchor:middle;font-family:sans-serif;font-style:normal;font-weight:normal" x="298" y="125.6">
      <tspan x="298" y="125.6">Translator</tspan>
    </text>
  </g>
  <g>
    <path style="fill: #ffffff" d="M 206.424 29 L 263.574,29 L 263.574,63.2857 C 252.144,57.5714 246.429,57.5714 234.999,63.2857 C 223.569,69 217.854,69 206.424,63.2857 L 206.424,29z"/>
    <path style="fill: none; fill-opacity:0; stroke-width: 2; stroke: #000000" d="M 206.424 29 L 263.574,29 L 263.574,63.2857 C 252.144,57.5714 246.429,57.5714 234.999,63.2857 C 223.569,69 217.854,69 206.424,63.2857 L 206.424,29"/>
    <text font-size="12.8" style="fill: #000000;text-anchor:middle;font-family:sans-serif;font-style:normal;font-weight:normal" x="234.999" y="47.2857">
      <tspan x="234.999" y="47.2857">Corpora</tspan>
    </text>
  </g>
  <g>
    <line style="fill: none; fill-opacity:0; stroke-width: 2; stroke: #000000" x1="157.918" y1="182.068" x2="161.77" y2="131.995"/>
    <polygon style="fill: #000000" points="152.933,181.684 156.691,198.021 162.903,182.451 "/>
    <polygon style="fill: none; fill-opacity:0; stroke-width: 2; stroke: #000000" points="152.933,181.684 156.691,198.021 162.903,182.451 "/>
    <text font-size="12.7998" style="fill: #000000;text-anchor:middle;font-family:sans-serif;font-style:normal;font-weight:normal" x="159.192" y="175.507">annotate</text>
  </g>
  <g>
    <path style="fill: #ffffff" d="M 122.9 200 L 187.1,200 L 187.1,234.286 C 174.26,228.571 167.84,228.571 155,234.286 C 142.16,240 135.74,240 122.9,234.286 L 122.9,200z"/>
    <path style="fill: none; fill-opacity:0; stroke-width: 2; stroke: #000000" d="M 122.9 200 L 187.1,200 L 187.1,234.286 C 174.26,228.571 167.84,228.571 155,234.286 C 142.16,240 135.74,240 122.9,234.286 L 122.9,200"/>
    <text font-size="12.8" style="fill: #000000;text-anchor:middle;font-family:sans-serif;font-style:normal;font-weight:normal" x="155" y="218.286">
      <tspan x="155" y="218.286">Treebank</tspan>
    </text>
  </g>
  <g>
    <path style="fill: #ffffff" d="M 271.174 200 L 346.824,200 L 346.824,234.286 C 331.694,228.571 324.129,228.571 308.999,234.286 C 293.869,240 286.304,240 271.174,234.286 L 271.174,200z"/>
    <path style="fill: none; fill-opacity:0; stroke-width: 2; stroke: #000000" d="M 271.174 200 L 346.824,200 L 346.824,234.286 C 331.694,228.571 324.129,228.571 308.999,234.286 C 293.869,240 286.304,240 271.174,234.286 L 271.174,200"/>
    <text font-size="12.8" style="fill: #000000;text-anchor:middle;font-family:sans-serif;font-style:normal;font-weight:normal" x="308.999" y="218.286">
      <tspan x="308.999" y="218.286">Translation</tspan>
    </text>
  </g>
  <g>
    <line style="fill: none; fill-opacity:0; stroke-width: 2; stroke: #000000" x1="304.375" y1="182.164" x2="298" y2="130"/>
    <polygon style="fill: #000000" points="299.412,182.77 306.316,198.045 309.338,181.557 "/>
    <polygon style="fill: none; fill-opacity:0; stroke-width: 2; stroke: #000000" points="299.412,182.77 306.316,198.045 309.338,181.557 "/>
    <text font-size="12.7998" style="fill: #000000;text-anchor:middle;font-family:sans-serif;font-style:normal;font-weight:normal" x="302.218" y="174.519">translate</text>
  </g>
  <g>
    <rect style="fill: #ffffff" x="145" y="286" width="69.75" height="36"/>
    <rect style="fill: none; fill-opacity:0; stroke-width: 2; stroke: #000000" x="145" y="286" width="69.75" height="36"/>
    <text font-size="12.8" style="fill: #000000;text-anchor:middle;font-family:sans-serif;font-style:normal;font-weight:normal" x="179.875" y="307.6">
      <tspan x="179.875" y="307.6">Analyser</tspan>
    </text>
    <line style="fill: none; fill-opacity:0; stroke-width: 1; stroke: #000000" x1="155" y1="310.35" x2="204.75" y2="310.35"/>
  </g>
  <g>
    <rect style="fill: #ffffff" x="279" y="304" width="141" height="36"/>
    <rect style="fill: none; fill-opacity:0; stroke-width: 2; stroke: #000000" x="279" y="304" width="141" height="36"/>
    <text font-size="12.8" style="fill: #000000;text-anchor:middle;font-family:sans-serif;font-style:normal;font-weight:normal" x="349.5" y="325.6">
      <tspan x="349.5" y="325.6">Translation dictionary</tspan>
    </text>
    <line style="fill: none; fill-opacity:0; stroke-width: 1; stroke: #000000" x1="289" y1="328.35" x2="410" y2="328.35"/>
  </g>
  <g>
    <line style="fill: none; fill-opacity:0; stroke-width: 2; stroke: #000000" x1="169.421" y1="268.699" x2="159.048" y2="233.668"/>
    <polygon style="fill: #000000" points="164.627,270.119 173.964,284.041 174.216,267.279 "/>
    <polygon style="fill: none; fill-opacity:0; stroke-width: 2; stroke: #000000" points="164.627,270.119 173.964,284.041 174.216,267.279 "/>
  </g>
  <g>
    <line style="fill: none; fill-opacity:0; stroke-width: 2; stroke: #000000" x1="335.687" y1="287.212" x2="314.351" y2="233.478"/>
    <polygon style="fill: #000000" points="331.04,289.057 341.591,302.083 340.334,285.367 "/>
    <polygon style="fill: none; fill-opacity:0; stroke-width: 2; stroke: #000000" points="331.04,289.057 341.591,302.083 340.334,285.367 "/>
  </g>
  <g>
    <line style="fill: none; fill-opacity:0; stroke-width: 2; stroke: #000000" x1="223.332" y1="275.729" x2="280.777" y2="238.36"/>
    <polygon style="fill: #000000" points="220.606,271.538 209.921,284.454 226.059,279.921 "/>
    <polygon style="fill: none; fill-opacity:0; stroke-width: 2; stroke: #000000" points="220.606,271.538 209.921,284.454 226.059,279.921 "/>
  </g>
  <g>
    <line style="fill: none; fill-opacity:0; stroke-width: 2; stroke: #000000" x1="298.237" y1="295.117" x2="177.84" y2="231.978"/>
    <polygon style="fill: #000000" points="295.915,299.545 312.407,302.548 300.559,290.689 "/>
    <polygon style="fill: none; fill-opacity:0; stroke-width: 2; stroke: #000000" points="295.915,299.545 312.407,302.548 300.559,290.689 "/>
  </g>
  <g>
    <path style="fill: none; fill-opacity:0; stroke-width: 2; stroke: #000000" d="M 130.15,93.9091 A 116.011,116.011 0 0 0 144.005,292.122"/>
    <polygon style="fill: #000000" points="136.391,89.7925 130.278,99.1538 129.915,93.5754 125.234,90.519 "/>
    <polygon style="fill: none; fill-opacity:0; stroke-width: 2; stroke: #000000" points="136.391,89.7925 130.278,99.1538 129.915,93.5754 125.234,90.519 "/>
  </g>
  <g>
    <path style="fill: none; fill-opacity:0; stroke-width: 2; stroke: #000000" d="M 367.979,302.999 A 178.222,178.222 0 0 0 333.509,104.12"/>
    <polygon style="fill: #000000" points="328.174,98.8626 338.922,101.941 333.7,103.934 332.16,109.308 "/>
    <polygon style="fill: none; fill-opacity:0; stroke-width: 2; stroke: #000000" points="328.174,98.8626 338.922,101.941 333.7,103.934 332.16,109.308 "/>
  </g>
  <text font-size="12.8" style="fill: #000000;text-anchor:start;font-family:sans-serif;font-style:normal;font-weight:normal" x="37" y="173">
    <tspan x="37" y="173"></tspan>
  </text>
  <text font-size="12.8" style="fill: #000000;text-anchor:start;font-family:sans-serif;font-style:normal;font-weight:normal" x="36" y="183">
    <tspan x="36" y="183">suggest</tspan>
  </text>
  <text font-size="12.8" style="fill: #000000;text-anchor:start;font-family:sans-serif;font-style:normal;font-weight:normal" x="381" y="173">
    <tspan x="381" y="173">suggest</tspan>
  </text>
</svg>
